<svg width="42" height="34" viewBox="0 0 42 34" fill="none" xmlns="http://www.w3.org/2000/svg">
<path d="M35.5834 0.333374H6.41669C4.75908 0.333374 3.16937 0.991854 1.99727 2.16396C0.825168 3.33606 0.166687 4.92577 0.166687 6.58337V27.4167C0.166687 29.0743 0.825168 30.664 1.99727 31.8361C3.16937 33.0082 4.75908 33.6667 6.41669 33.6667H35.5834C37.241 33.6667 38.8307 33.0082 40.0028 31.8361C41.1749 30.664 41.8334 29.0743 41.8334 27.4167V6.58337C41.8334 4.92577 41.1749 3.33606 40.0028 2.16396C38.8307 0.991854 37.241 0.333374 35.5834 0.333374ZM37.6667 27.4167C37.6667 27.9692 37.4472 28.4991 37.0565 28.8898C36.6658 29.2805 36.1359 29.5 35.5834 29.5H6.41669C5.86415 29.5 5.33425 29.2805 4.94355 28.8898C4.55285 28.4991 4.33335 27.9692 4.33335 27.4167V6.58337C4.33335 6.03084 4.55285 5.50094 4.94355 5.11024C5.33425 4.71953 5.86415 4.50004 6.41669 4.50004H35.5834C36.1359 4.50004 36.6658 4.71953 37.0565 5.11024C37.4472 5.50094 37.6667 6.03084 37.6667 6.58337V27.4167ZM33.0417 11.5417C33.3823 11.9734 33.5385 12.5223 33.476 13.0687C33.4136 13.6151 33.1376 14.1146 32.7084 14.4584L24.8959 20.7084C23.789 21.5907 22.4155 22.0711 21 22.0711C19.5846 22.0711 18.211 21.5907 17.1042 20.7084L9.29169 14.4584C8.91214 14.1001 8.68089 13.6124 8.6437 13.0918C8.60651 12.5712 8.76609 12.0556 9.09086 11.647C9.41563 11.2385 9.88193 10.9667 10.3975 10.8854C10.9131 10.8042 11.4404 10.9194 11.875 11.2084L19.7084 17.4584C20.0762 17.749 20.5312 17.9071 21 17.9071C21.4688 17.9071 21.9239 17.749 22.2917 17.4584L30.125 11.2084C30.5568 10.8677 31.1057 10.7116 31.652 10.7741C32.1984 10.8365 32.6979 11.1124 33.0417 11.5417Z" fill="#EF9F05"/>
</svg>
