<svg width="36" height="36" viewBox="0 0 36 36" fill="none" xmlns="http://www.w3.org/2000/svg">
<path d="M19.6667 24.6666C19.6686 25.7617 19.4547 26.8465 19.0372 27.8588C18.6197 28.8712 18.0067 29.7913 17.2333 30.5666L14.8667 33C13.295 34.518 11.19 35.3579 9.005 35.3389C6.82003 35.3199 4.72992 34.4435 3.18486 32.8985C1.63979 31.3534 0.763381 29.2633 0.744395 27.0783C0.725408 24.8933 1.56536 22.7883 3.08334 21.2166L5.43334 18.85C6.20178 18.0615 7.11882 17.4332 8.1315 17.0012C9.14418 16.5693 10.2324 16.3423 11.3333 16.3333C11.7754 16.3333 12.1993 16.5089 12.5119 16.8215C12.8244 17.134 13 17.5579 13 18C13 18.442 12.8244 18.8659 12.5119 19.1785C12.1993 19.491 11.7754 19.6666 11.3333 19.6666C10.0077 19.6678 8.73679 20.1954 7.80001 21.1333L5.43334 23.4833C4.49404 24.4226 3.96634 25.6966 3.96634 27.025C3.96634 28.3534 4.49404 29.6273 5.43334 30.5666C6.37265 31.506 7.64663 32.0336 8.97501 32.0336C10.3034 32.0336 11.5774 31.506 12.5167 30.5666L14.8667 28.2C15.8046 27.2632 16.3322 25.9923 16.3333 24.6666C16.3333 24.2246 16.5089 23.8007 16.8215 23.4881C17.1341 23.1756 17.558 23 18 23C18.442 23 18.866 23.1756 19.1785 23.4881C19.4911 23.8007 19.6667 24.2246 19.6667 24.6666ZM35.35 8.98331C35.3497 7.33639 34.8613 5.7265 33.9467 4.35693C33.032 2.98735 31.732 1.91951 30.2109 1.28823C28.6898 0.656956 27.0157 0.490556 25.4001 0.810044C23.7845 1.12953 22.2997 1.92058 21.1333 3.08331L18.7667 5.43331C17.9933 6.20862 17.3803 7.12877 16.9628 8.14113C16.5453 9.15349 16.3314 10.2382 16.3333 11.3333C16.3333 11.7753 16.5089 12.1993 16.8215 12.5118C17.1341 12.8244 17.558 13 18 13C18.442 13 18.866 12.8244 19.1785 12.5118C19.4911 12.1993 19.6667 11.7753 19.6667 11.3333C19.6678 10.0077 20.1954 8.73676 21.1333 7.79997L23.4833 5.43331C23.9484 4.96821 24.5006 4.59927 25.1083 4.34756C25.716 4.09585 26.3673 3.9663 27.025 3.9663C27.6828 3.9663 28.3341 4.09585 28.9417 4.34756C29.5494 4.59927 30.1016 4.96821 30.5667 5.43331C31.0318 5.8984 31.4007 6.45056 31.6524 7.05824C31.9041 7.66592 32.0337 8.31722 32.0337 8.97497C32.0337 9.63272 31.9041 10.284 31.6524 10.8917C31.4007 11.4994 31.0318 12.0515 30.5667 12.5166L28.2 14.8666C27.2632 15.8046 25.9923 16.3321 24.6667 16.3333C24.2247 16.3333 23.8007 16.5089 23.4882 16.8215C23.1756 17.134 23 17.5579 23 18C23 18.442 23.1756 18.8659 23.4882 19.1785C23.8007 19.491 24.2247 19.6666 24.6667 19.6666C25.7618 19.6686 26.8465 19.4547 27.8589 19.0372C28.8712 18.6196 29.7914 18.0067 30.5667 17.2333L33 14.8666C34.5273 13.2914 35.3717 11.1773 35.35 8.98331ZM11.8167 24.1833C11.9716 24.3395 12.156 24.4635 12.359 24.5481C12.5621 24.6327 12.78 24.6763 13 24.6763C13.22 24.6763 13.4379 24.6327 13.641 24.5481C13.8441 24.4635 14.0284 24.3395 14.1833 24.1833L24.1833 14.1833C24.4972 13.8695 24.6735 13.4438 24.6735 13C24.6735 12.5561 24.4972 12.1305 24.1833 11.8166C23.8695 11.5028 23.4438 11.3265 23 11.3265C22.5562 11.3265 22.1305 11.5028 21.8167 11.8166L11.8167 21.8166C11.6605 21.9716 11.5365 22.1559 11.4519 22.359C11.3672 22.5621 11.3237 22.78 11.3237 23C11.3237 23.22 11.3672 23.4378 11.4519 23.6409C11.5365 23.844 11.6605 24.0284 11.8167 24.1833Z" fill="#EF9F05"/>
</svg>
