<svg width="41" height="41" viewBox="0 0 41 41" fill="none" xmlns="http://www.w3.org/2000/svg">
<path d="M36.875 32.1458C36.8627 30.5134 36.2121 28.9506 35.0625 27.7916L34.5833 27.25C32.7871 25.454 30.3526 24.4427 27.8125 24.4375C26.3655 24.4484 24.9402 24.7905 23.6458 25.4375L21.875 26.3125C20.3677 25.5824 18.9942 24.6034 17.8125 23.4166C16.6281 22.1981 15.6563 20.7897 14.9375 19.25L15.8125 17.4791C16.4702 16.1878 16.8197 14.7616 16.8333 13.3125C16.8117 12.0444 16.5391 10.7933 16.0314 9.63116C15.5236 8.46905 14.7907 7.419 13.875 6.54163L13.2917 5.97913C12.1207 4.80669 10.532 4.14725 8.875 4.14579H7.125C5.4674 4.14579 3.87769 4.80427 2.70558 5.97637C1.53348 7.14848 0.875 8.73819 0.875 10.3958V10.5833C0.940754 14.0009 1.47346 17.3934 2.45833 20.6666C3.73908 24.9062 6.02634 28.7731 9.125 31.9375V31.9375C12.2781 35.0448 16.1388 37.3397 20.375 38.625C23.6456 39.6241 27.0391 40.164 30.4583 40.2291H30.6042C32.2618 40.2291 33.8515 39.5706 35.0236 38.3985C36.1957 37.2264 36.8542 35.6367 36.8542 33.9791V32.2291L36.875 32.1458ZM30.625 36.0208C27.6008 35.9723 24.5987 35.4954 21.7083 34.6041C18.1133 33.5184 14.833 31.5817 12.1458 28.9583V28.9583C9.52799 26.2704 7.59825 22.9898 6.52083 19.3958C5.64517 16.4954 5.17542 13.4876 5.125 10.4583V10.4583C5.125 9.90576 5.34449 9.37585 5.73519 8.98515C6.12589 8.59445 6.6558 8.37496 7.20833 8.37496H8.95833C9.23251 8.37337 9.50431 8.42593 9.75814 8.5296C10.012 8.63328 10.2428 8.78604 10.4375 8.97913L11 9.54162C11.9685 10.5491 12.5065 11.8942 12.5 13.2916C12.5001 14.1254 12.3001 14.9471 11.9167 15.6875L10.6042 18.3333C10.4804 18.6047 10.4163 18.8996 10.4163 19.1979C10.4163 19.4962 10.4804 19.791 10.6042 20.0625C11.5667 22.4005 12.9829 24.5247 14.7708 26.3125V26.3125C16.5579 28.1013 18.6823 29.5175 21.0208 30.4791C21.2923 30.6029 21.5871 30.667 21.8854 30.667C22.1837 30.667 22.4786 30.6029 22.75 30.4791L25.3958 29.1458C26.4107 28.6291 27.564 28.4495 28.6879 28.6331C29.8119 28.8167 30.8481 29.3539 31.6458 30.1666L32.2083 30.75C32.5932 31.138 32.8102 31.6617 32.8125 32.2083V33.9375C32.813 34.2219 32.7553 34.5034 32.6429 34.7647C32.5304 35.026 32.3657 35.2614 32.1588 35.4566C31.9519 35.6518 31.7072 35.8025 31.4399 35.8996C31.1725 35.9966 30.8881 36.0379 30.6042 36.0208H30.625ZM20.9167 11.4166C20.8394 10.8696 20.9825 10.3143 21.3146 9.87287C21.6467 9.4314 22.1405 9.13989 22.6875 9.06246C23.0342 9.03538 23.3825 9.03538 23.7292 9.06246C24.6264 9.07514 25.5173 9.21543 26.375 9.47913C27.6006 9.87032 28.7148 10.5491 29.6245 11.4588C30.5342 12.3685 31.213 13.4827 31.6042 14.7083C31.8729 15.5643 32.0065 16.457 32 17.3541C32.0344 17.7005 32.0344 18.0494 32 18.3958C31.9254 18.9483 31.6344 19.4486 31.1909 19.7866C30.7475 20.1245 30.188 20.2725 29.6354 20.1979C29.0829 20.1233 28.5826 19.8323 28.2447 19.3888C27.9067 18.9454 27.7587 18.3858 27.8333 17.8333C27.8333 17.8333 27.8333 17.625 27.8333 17.3541C27.8438 16.8804 27.7733 16.4083 27.625 15.9583C27.446 15.3681 27.1242 14.8313 26.6881 14.3952C26.252 13.9591 25.7151 13.6373 25.125 13.4583C24.6731 13.3153 24.203 13.2381 23.7292 13.2291C23.5767 13.2157 23.4233 13.2157 23.2708 13.2291C22.9969 13.2671 22.7182 13.2501 22.4508 13.1793C22.1835 13.1084 21.933 12.985 21.7139 12.8163C21.4947 12.6476 21.3114 12.4369 21.1745 12.1966C21.0377 11.9563 20.95 11.6912 20.9167 11.4166ZM40.0208 15.3333V15.625C40.0208 16.1775 39.8013 16.7074 39.4106 17.0981C39.0199 17.4888 38.49 17.7083 37.9375 17.7083C37.385 17.7083 36.8551 17.4888 36.4644 17.0981C36.0737 16.7074 35.8542 16.1775 35.8542 15.625V15.4166C35.8469 14.4149 35.6996 13.4192 35.4167 12.4583C34.9631 10.8291 34.1013 9.34268 32.9128 8.13961C31.7243 6.93654 30.2485 6.05668 28.625 5.58329C27.6641 5.30034 26.6683 5.15308 25.6667 5.14579H25.4792C25.2056 5.15263 24.9333 5.10552 24.6779 5.00714C24.4226 4.90876 24.1891 4.76105 23.9908 4.57243C23.7925 4.38381 23.6333 4.15798 23.5223 3.90783C23.4112 3.65769 23.3506 3.38813 23.3437 3.11454C23.3369 2.84096 23.384 2.5687 23.4824 2.31332C23.5808 2.05794 23.7285 1.82444 23.9171 1.62615C24.1057 1.42786 24.3316 1.26866 24.5817 1.15764C24.8319 1.04663 25.1014 0.985966 25.375 0.979126H25.6667C27.0785 0.984671 28.482 1.1952 29.8333 1.60413C32.1078 2.26658 34.1785 3.49208 35.8536 5.16721C37.5287 6.84234 38.7542 8.91297 39.4167 11.1875C39.8194 12.5325 40.023 13.9293 40.0208 15.3333V15.3333Z" fill="#EF9F05"/>
</svg>
