<svg width="48" height="48" viewBox="0 0 48 48" fill="none" xmlns="http://www.w3.org/2000/svg">
<path d="M36 4H16C14.4087 4 12.8826 4.63214 11.7574 5.75736C10.6321 6.88258 10 8.4087 10 10V41.18C10.0126 41.7101 10.1305 42.2324 10.3468 42.7165C10.5631 43.2006 10.8735 43.6369 11.26 44C12.0059 44.721 13.0026 45.124 14.04 45.124C15.0774 45.124 16.0741 44.721 16.82 44L25.76 35.08L26 34.98L26.24 35.08L35.18 44C35.7393 44.556 36.4506 44.9343 37.2243 45.0873C37.998 45.2402 38.7996 45.161 39.5285 44.8597C40.2573 44.5583 40.8808 44.0482 41.3205 43.3935C41.7603 42.7388 41.9967 41.9687 42 41.18V10C42 8.4087 41.3679 6.88258 40.2426 5.75736C39.1174 4.63214 37.5913 4 36 4ZM38 41.18L29.08 32.24C28.2575 31.4338 27.1517 30.9822 26 30.9822C24.8483 30.9822 23.7425 31.4338 22.92 32.24L14 41.16V16H38V41.18ZM38 12H14V10C14 9.46957 14.2107 8.96086 14.5858 8.58579C14.9609 8.21071 15.4696 8 16 8H36C36.5304 8 37.0391 8.21071 37.4142 8.58579C37.7893 8.96086 38 9.46957 38 10V12Z" fill="#0C0C34"/>
</svg>
