<svg width="27" height="35" viewBox="0 0 27 35" fill="none" xmlns="http://www.w3.org/2000/svg">
<path d="M22 0.333344H5.33333C4.00725 0.333344 2.73548 0.860128 1.7978 1.79781C0.860117 2.73549 0.333333 4.00726 0.333333 5.33334V31.3167C0.343854 31.7584 0.442101 32.1937 0.622359 32.5971C0.802618 33.0005 1.06129 33.3641 1.38333 33.6667C2.00489 34.2675 2.83554 34.6033 3.7 34.6033C4.56446 34.6033 5.39511 34.2675 6.01667 33.6667L13.4667 26.2333L13.6667 26.15L13.8667 26.2333L21.3167 33.6667C21.7828 34.13 22.3755 34.4453 23.0202 34.5727C23.665 34.7002 24.333 34.6342 24.9404 34.3831C25.5478 34.1319 26.0673 33.7068 26.4338 33.1613C26.8002 32.6157 26.9972 31.9739 27 31.3167V5.33334C27 4.00726 26.4732 2.73549 25.5355 1.79781C24.5978 0.860128 23.3261 0.333344 22 0.333344ZM23.6667 31.3167L16.2333 23.8667C15.5479 23.1948 14.6264 22.8185 13.6667 22.8185C12.7069 22.8185 11.7854 23.1948 11.1 23.8667L3.66667 31.3V10.3333H23.6667V31.3167ZM23.6667 7.00001H3.66667V5.33334C3.66667 4.89132 3.84226 4.46739 4.15482 4.15483C4.46738 3.84227 4.8913 3.66668 5.33333 3.66668H22C22.442 3.66668 22.8659 3.84227 23.1785 4.15483C23.4911 4.46739 23.6667 4.89132 23.6667 5.33334V7.00001Z" fill="#0C0C34"/>
</svg>
