<svg width="39" height="39" viewBox="0 0 39 39" fill="none" xmlns="http://www.w3.org/2000/svg">
<path d="M22.7741 5.27547C22.5267 4.65833 22.1003 4.1294 21.5496 3.75684C20.9989 3.38429 20.3493 3.18518 19.6844 3.18518C19.0196 3.18518 18.37 3.38429 17.8193 3.75684C17.2686 4.1294 16.8421 4.65833 16.5948 5.27547L13.7918 12.1236L13.6644 12.2192L6.29074 12.7606C5.85536 12.7898 5.43005 12.9048 5.03922 13.0988C4.64839 13.2929 4.29975 13.5622 4.01333 13.8914C3.48316 14.5013 3.18932 15.2811 3.18518 16.0892C3.185 16.5755 3.29192 17.056 3.49836 17.4964C3.70479 17.9368 4.00567 18.3263 4.37963 18.6373L10.0333 23.4151V23.5266L8.31333 30.7729C8.251 31.0445 8.21895 31.3223 8.21777 31.601C8.21053 32.0446 8.29603 32.4848 8.46881 32.8935C8.64159 33.3021 8.89783 33.6701 9.22111 33.974C9.75489 34.4967 10.4497 34.8236 11.1927 34.9017C11.9357 34.9798 12.6833 34.8044 13.3141 34.404L19.6844 30.5021H19.8437L26.0548 34.404C26.6873 34.8023 27.4359 34.9751 28.179 34.8941C28.9221 34.8132 29.6159 34.4833 30.1478 33.9581C30.4711 33.6542 30.7273 33.2862 30.9001 32.8775C31.0728 32.4689 31.1584 32.0287 31.1511 31.5851C31.1508 31.3116 31.1187 31.039 31.0555 30.7729L29.24 23.5425V23.431L34.8937 18.6532C35.2365 18.367 35.5186 18.015 35.7232 17.618C35.9277 17.2209 36.0507 16.787 36.0849 16.3416C36.119 15.8963 36.0636 15.4487 35.9219 15.0251C35.7803 14.6015 35.5552 14.2106 35.26 13.8755C34.9736 13.5463 34.6249 13.2769 34.2341 13.0829C33.8433 12.8888 33.418 12.7739 32.9826 12.7447L25.6089 12.2032L25.4815 12.1077L22.6785 5.25954L22.7741 5.27547ZM27.1855 20.9784C26.817 21.2931 26.5209 21.6837 26.3174 22.1235C26.114 22.5634 26.0081 23.042 26.007 23.5266C26.0064 23.7949 26.0384 24.0623 26.1026 24.3229L27.8544 31.4577V31.5373H27.727H27.6474L21.3726 27.6355C20.8396 27.3121 20.2282 27.1412 19.6048 27.1412C18.9814 27.1412 18.37 27.3121 17.837 27.6355L11.7215 31.6966H11.5941V31.6169L13.3618 24.4184C13.426 24.1579 13.4581 23.8905 13.4574 23.6221C13.4563 23.1375 13.3504 22.6589 13.147 22.2191C12.9436 21.7793 12.6474 21.3886 12.2789 21.074L6.62518 16.2962V16.1847V16.0732H6.72074L14.1104 15.5318C14.7289 15.4851 15.322 15.2665 15.8229 14.9007C16.3238 14.5348 16.7125 14.0363 16.9452 13.4614L19.5411 6.53361V6.45398H19.7322V6.53361L22.5352 13.3818C22.7679 13.9567 23.1566 14.4552 23.6575 14.821C24.1584 15.1868 24.7515 15.4054 25.37 15.4521L32.7596 15.9936H32.8552V16.1051V16.2166L27.1855 20.9784Z" fill="#EF9F05"/>
</svg>
