<svg width="39" height="38" viewBox="0 0 39 38" fill="none" xmlns="http://www.w3.org/2000/svg">
<path d="M23.2166 3.07291C22.9319 2.36249 22.441 1.7536 21.8071 1.32473C21.1732 0.895861 20.4253 0.666656 19.66 0.666656C18.8946 0.666656 18.1468 0.895861 17.5129 1.32473C16.879 1.7536 16.388 2.36249 16.1033 3.07291L12.8766 10.9562L12.73 11.0662L4.24164 11.6896C3.74046 11.7232 3.25085 11.8555 2.80094 12.0789C2.35104 12.3022 1.9497 12.6123 1.61997 12.9912C1.00966 13.6933 0.671406 14.591 0.666642 15.5212C0.666431 16.0811 0.789518 16.6342 1.02716 17.1412C1.2648 17.6482 1.61116 18.0966 2.04164 18.4546L8.54997 23.9546V24.0829L6.56998 32.4246C6.49822 32.7373 6.46133 33.0571 6.45998 33.3779C6.45163 33.8886 6.55007 34.3953 6.74896 34.8657C6.94785 35.3361 7.24283 35.7598 7.61497 36.1096C8.22944 36.7113 9.02928 37.0877 9.88461 37.1775C10.7399 37.2674 11.6005 37.0655 12.3266 36.6046L19.66 32.1129H19.8433L26.9933 36.6046C27.7214 37.0632 28.5832 37.262 29.4386 37.1688C30.294 37.0756 31.0927 36.6958 31.705 36.0912C32.0771 35.7415 32.3721 35.3178 32.571 34.8474C32.7699 34.377 32.8683 33.8702 32.86 33.3596C32.8596 33.0447 32.8227 32.7309 32.75 32.4246L30.66 24.1012V23.9729L37.1683 18.4729C37.563 18.1434 37.8876 17.7382 38.1232 17.2811C38.3587 16.8241 38.5003 16.3245 38.5396 15.8119C38.5789 15.2992 38.5151 14.7839 38.352 14.2963C38.1889 13.8087 37.9298 13.3587 37.59 12.9729C37.2603 12.594 36.8589 12.2839 36.409 12.0605C35.9591 11.8371 35.4695 11.7049 34.9683 11.6712L26.48 11.0479L26.3333 10.9379L23.1066 3.05458L23.2166 3.07291ZM28.295 21.1496C27.8707 21.5118 27.5298 21.9615 27.2956 22.4678C27.0615 22.9741 26.9396 23.5251 26.9383 24.0829C26.9375 24.3918 26.9745 24.6996 27.0483 24.9996L29.065 33.2129V33.3046H28.9183H28.8266L21.6033 28.8129C20.9898 28.4407 20.2859 28.2439 19.5683 28.2439C18.8507 28.2439 18.1468 28.4407 17.5333 28.8129L10.4933 33.4879H10.3466V33.3962L12.3816 25.1096C12.4555 24.8096 12.4924 24.5018 12.4916 24.1929C12.4904 23.6351 12.3685 23.0841 12.1343 22.5778C11.9002 22.0715 11.5592 21.6218 11.135 21.2596L4.62664 15.7596V15.6312V15.5029H4.73664L13.2433 14.8796C13.9553 14.8258 14.6381 14.5742 15.2147 14.1531C15.7913 13.732 16.2388 13.1581 16.5066 12.4962L19.495 4.52125V4.42958H19.715V4.52125L22.9416 12.4046C23.2095 13.0664 23.657 13.6403 24.2336 14.0614C24.8102 14.4825 25.493 14.7342 26.205 14.7879L34.7116 15.4112H34.8216V15.5396V15.6679L28.295 21.1496Z" fill="#0C0C34"/>
</svg>
