<svg width="54" height="54" viewBox="0 0 54 54" fill="none" xmlns="http://www.w3.org/2000/svg">
<path d="M32.175 7.45313C31.8256 6.58125 31.223 5.83398 30.4451 5.30764C29.6671 4.7813 28.7493 4.5 27.81 4.5C26.8707 4.5 25.9529 4.7813 25.1749 5.30764C24.397 5.83398 23.7944 6.58125 23.445 7.45313L19.485 17.1281L19.305 17.2631L8.8875 18.0281C8.27241 18.0694 7.67153 18.2317 7.11937 18.5059C6.56721 18.78 6.07466 19.1606 5.67 19.6256C4.92098 20.4873 4.50585 21.589 4.5 22.7306C4.49974 23.4178 4.6508 24.0966 4.94245 24.7187C5.2341 25.3409 5.65918 25.8913 6.1875 26.3306L14.175 33.0806V33.2381L11.745 43.4756C11.6569 43.8595 11.6117 44.2519 11.61 44.6456C11.5998 45.2724 11.7206 45.8943 11.9647 46.4716C12.2088 47.0489 12.5708 47.5689 13.0275 47.9981C13.7816 48.7366 14.7632 49.1985 15.813 49.3088C16.8627 49.4191 17.9189 49.1713 18.81 48.6056L27.81 43.0931H28.035L36.81 48.6056C37.7036 49.1684 38.7612 49.4125 39.811 49.2981C40.8608 49.1837 41.8411 48.7176 42.5925 47.9756C43.0492 47.5464 43.4112 47.0264 43.6553 46.4491C43.8994 45.8718 44.0202 45.2499 44.01 44.6231C44.0095 44.2367 43.9642 43.8516 43.875 43.4756L41.31 33.2606V33.1031L49.2975 26.3531C49.7819 25.9487 50.1803 25.4514 50.4694 24.8905C50.7584 24.3296 50.9322 23.7165 50.9804 23.0873C51.0286 22.4582 50.9504 21.8257 50.7502 21.2273C50.55 20.6289 50.2321 20.0767 49.815 19.6031C49.4103 19.1381 48.9178 18.7575 48.3656 18.4834C47.8135 18.2092 47.2126 18.0469 46.5975 18.0056L36.18 17.2406L36 17.1056L32.04 7.43063L32.175 7.45313ZM38.4075 29.6381C37.8868 30.0827 37.4684 30.6345 37.181 31.2559C36.8936 31.8773 36.744 32.5535 36.7425 33.2381C36.7415 33.6172 36.7869 33.995 36.8775 34.3631V34.3631L39.3525 44.4431V44.5556H39.1725H39.06L30.195 39.0431C29.442 38.5863 28.5782 38.3448 27.6975 38.3448C26.8168 38.3448 25.953 38.5863 25.2 39.0431L16.56 44.7806H16.38V44.6681L18.8775 34.4981C18.9681 34.13 19.0135 33.7522 19.0125 33.3731C19.011 32.6885 18.8614 32.0123 18.574 31.3909C18.2866 30.7695 17.8682 30.2177 17.3475 29.7731L9.36 23.0231V22.8656V22.7081H9.495L19.935 21.9431C20.8088 21.8772 21.6468 21.5683 22.3544 21.0515C23.0621 20.5347 23.6113 19.8304 23.94 19.0181L27.6075 9.23063V9.11813H27.8775V9.23063L31.8375 18.9056C32.1662 19.7179 32.7154 20.4222 33.4231 20.939C34.1307 21.4558 34.9687 21.7647 35.8425 21.8306L46.2825 22.5956H46.4175V22.7531V22.9106L38.4075 29.6381Z" fill="#0C0C34"/>
</svg>
