<svg width="38" height="38" viewBox="0 0 38 38" fill="none" xmlns="http://www.w3.org/2000/svg">
<path d="M25.3333 19C25.3333 19.4199 25.1665 19.8226 24.8696 20.1195C24.5727 20.4165 24.1699 20.5833 23.75 20.5833H14.25C13.8301 20.5833 13.4273 20.4165 13.1304 20.1195C12.8335 19.8226 12.6667 19.4199 12.6667 19C12.6667 18.58 12.8335 18.1773 13.1304 17.8804C13.4273 17.5834 13.8301 17.4166 14.25 17.4166H23.75C24.1699 17.4166 24.5727 17.5834 24.8696 17.8804C25.1665 18.1773 25.3333 18.58 25.3333 19ZM19 23.75H14.25C13.8301 23.75 13.4273 23.9168 13.1304 24.2137C12.8335 24.5106 12.6667 24.9134 12.6667 25.3333C12.6667 25.7532 12.8335 26.1559 13.1304 26.4529C13.4273 26.7498 13.8301 26.9166 14.25 26.9166H19C19.4199 26.9166 19.8227 26.7498 20.1196 26.4529C20.4165 26.1559 20.5833 25.7532 20.5833 25.3333C20.5833 24.9134 20.4165 24.5106 20.1196 24.2137C19.8227 23.9168 19.4199 23.75 19 23.75ZM33.25 7.91663V30.0833C33.25 31.3431 32.7496 32.5513 31.8588 33.442C30.968 34.3328 29.7598 34.8333 28.5 34.8333H9.5C8.24022 34.8333 7.03204 34.3328 6.14124 33.442C5.25045 32.5513 4.75 31.3431 4.75 30.0833V7.91663C4.75 6.65685 5.25045 5.44867 6.14124 4.55787C7.03204 3.66707 8.24022 3.16663 9.5 3.16663H28.5C29.7598 3.16663 30.968 3.66707 31.8588 4.55787C32.7496 5.44867 33.25 6.65685 33.25 7.91663ZM22.1667 9.49996C22.5866 9.49996 22.9893 9.33314 23.2863 9.03621C23.5832 8.73928 23.75 8.33655 23.75 7.91663V6.33329H14.25V7.91663C14.25 8.33655 14.4168 8.73928 14.7137 9.03621C15.0107 9.33314 15.4134 9.49996 15.8333 9.49996H22.1667ZM30.0833 7.91663C30.0833 7.4967 29.9165 7.09397 29.6196 6.79704C29.3227 6.50011 28.9199 6.33329 28.5 6.33329H26.9167V7.91663C26.9167 9.1764 26.4162 10.3846 25.5254 11.2754C24.6346 12.1662 23.4264 12.6666 22.1667 12.6666H15.8333C14.5736 12.6666 13.3654 12.1662 12.4746 11.2754C11.5838 10.3846 11.0833 9.1764 11.0833 7.91663V6.33329H9.5C9.08007 6.33329 8.67735 6.50011 8.38041 6.79704C8.08348 7.09397 7.91667 7.4967 7.91667 7.91663V30.0833C7.91667 30.5032 8.08348 30.9059 8.38041 31.2029C8.67735 31.4998 9.08007 31.6666 9.5 31.6666H28.5C28.9199 31.6666 29.3227 31.4998 29.6196 31.2029C29.9165 30.9059 30.0833 30.5032 30.0833 30.0833V7.91663Z" fill="#EF9F05"/>
</svg>
