<svg width="46" height="46" viewBox="0 0 46 46" fill="none" xmlns="http://www.w3.org/2000/svg">
<path d="M38.8892 41.6108L30.475 33.1775C27.7978 35.2827 24.4891 36.4239 21.0833 36.4167C18.0507 36.4167 15.0861 35.5174 12.5646 33.8325C10.043 32.1477 8.07773 29.753 6.91719 26.9512C5.75664 24.1494 5.45299 21.0663 6.04463 18.092C6.63627 15.1176 8.09663 12.3854 10.241 10.241C12.3854 8.09663 15.1176 6.63627 18.092 6.04463C21.0663 5.45299 24.1494 5.75664 26.9512 6.91719C29.753 8.07773 32.1477 10.043 33.8325 12.5646C35.5174 15.0862 36.4167 18.0507 36.4167 21.0833C36.4239 24.4891 35.2827 27.7978 33.1775 30.475L41.6108 38.8892C41.9718 39.2501 42.1745 39.7396 42.1745 40.25C42.1745 40.7604 41.9718 41.2499 41.6108 41.6108C41.2499 41.9718 40.7604 42.1745 40.25 42.1745C39.7396 42.1745 39.2501 41.9718 38.8892 41.6108ZM29.3058 12.9567C27.4444 11.0531 24.9802 9.85443 22.3336 9.56506C19.6869 9.2757 17.0219 9.9136 14.7931 11.3699C12.5643 12.8263 10.9099 15.0108 10.1121 17.5509C9.31432 20.0909 9.42255 22.8291 10.4184 25.2983C11.4142 27.7674 13.2359 29.8146 15.5726 31.0904C17.9094 32.3663 20.6165 32.7919 23.232 32.2945C25.8476 31.7971 28.2095 30.4076 29.9148 28.3631C31.6202 26.3186 32.5633 23.7457 32.5833 21.0833C32.5807 18.0344 31.3673 15.1113 29.21 12.9567L29.3058 12.9567Z" fill="#0C0C34"/>
</svg>
