<svg width="34" height="34" viewBox="0 0 34 34" fill="none" xmlns="http://www.w3.org/2000/svg">
<path d="M25.5 2.83337H11.3334C10.2062 2.83337 9.1252 3.28114 8.32817 4.07817C7.53114 4.8752 7.08337 5.9562 7.08337 7.08337V29.1692C7.09232 29.5447 7.17583 29.9147 7.32905 30.2576C7.48227 30.6005 7.70214 30.9095 7.97587 31.1667C8.5042 31.6774 9.21025 31.9628 9.94504 31.9628C10.6798 31.9628 11.3859 31.6774 11.9142 31.1667L18.2467 24.8484L18.4167 24.7775L18.5867 24.8484L24.9192 31.1667C25.3154 31.5606 25.8192 31.8285 26.3672 31.9368C26.9153 32.0452 27.4831 31.9891 27.9994 31.7756C28.5156 31.5622 28.9573 31.2009 29.2688 30.7371C29.5803 30.2733 29.7477 29.7279 29.75 29.1692V7.08337C29.75 5.9562 29.3023 4.8752 28.5052 4.07817C27.7082 3.28114 26.6272 2.83337 25.5 2.83337ZM26.9167 29.1692L20.5984 22.8367C20.0158 22.2657 19.2325 21.9458 18.4167 21.9458C17.6009 21.9458 16.8176 22.2657 16.235 22.8367L9.91671 29.155V11.3334H26.9167V29.1692ZM26.9167 8.50004H9.91671V7.08337C9.91671 6.70765 10.066 6.34732 10.3316 6.08164C10.5973 5.81596 10.9577 5.66671 11.3334 5.66671H25.5C25.8758 5.66671 26.2361 5.81596 26.5018 6.08164C26.7675 6.34732 26.9167 6.70765 26.9167 7.08337V8.50004Z" fill="#EF9F05"/>
</svg>
