<svg width="39" height="39" viewBox="0 0 39 39" fill="none" xmlns="http://www.w3.org/2000/svg">
<path d="M19.1111 14.3333C18.1661 14.3333 17.2424 14.6135 16.4567 15.1385C15.671 15.6635 15.0586 16.4097 14.697 17.2827C14.3354 18.1557 14.2408 19.1164 14.4251 20.0432C14.6095 20.97 15.0645 21.8213 15.7327 22.4895C16.4009 23.1577 17.2522 23.6127 18.179 23.7971C19.1058 23.9814 20.0664 23.8868 20.9395 23.5252C21.8125 23.1636 22.5587 22.5512 23.0837 21.7655C23.6086 20.9798 23.8889 20.056 23.8889 19.1111C23.8889 17.8439 23.3855 16.6287 22.4895 15.7327C21.5935 14.8367 20.3782 14.3333 19.1111 14.3333ZM19.1111 20.7037C18.7961 20.7037 18.4882 20.6103 18.2263 20.4353C17.9644 20.2603 17.7603 20.0115 17.6397 19.7205C17.5192 19.4295 17.4876 19.1093 17.5491 18.8004C17.6105 18.4914 17.7622 18.2077 17.9849 17.9849C18.2077 17.7622 18.4914 17.6105 18.8004 17.5491C19.1093 17.4876 19.4295 17.5192 19.7205 17.6397C20.0115 17.7603 20.2603 17.9644 20.4353 18.2263C20.6103 18.4882 20.7037 18.7961 20.7037 19.1111C20.7037 19.5335 20.5359 19.9385 20.2372 20.2372C19.9385 20.5359 19.5335 20.7037 19.1111 20.7037ZM33.1418 20.4011C32.8821 20.1066 32.7403 19.7266 32.7437 19.334V18.8881C32.7403 18.4955 32.8821 18.1155 33.1418 17.8211L34.1611 16.6744C34.9423 15.7975 35.3732 14.6636 35.3714 13.4892C35.3638 12.652 35.1446 11.8302 34.7344 11.1003L33.8426 9.50775C33.423 8.78098 32.8193 8.17756 32.0924 7.75819C31.3655 7.33883 30.541 7.11832 29.7018 7.11886C29.3809 7.11907 29.0608 7.15108 28.7463 7.21442L27.2492 7.51701H26.9148C26.6417 7.51277 26.3737 7.44169 26.1344 7.30997L25.7363 7.07108C25.4282 6.92072 25.1768 6.67497 25.0196 6.37034L24.5259 4.92108C24.1955 3.9866 23.5827 3.17799 22.7723 2.6073C21.9619 2.03661 20.9941 1.73208 20.0029 1.7359H18.2192C17.2357 1.72738 16.2735 2.0226 15.464 2.58126C14.6545 3.13992 14.0372 3.9348 13.6963 4.85738L13.2026 6.37034C13.079 6.74021 12.824 7.05188 12.4859 7.24627L12.1037 7.48516C11.8578 7.61473 11.5852 7.6856 11.3074 7.69219H10.9889L9.55553 7.29404C9.24095 7.23071 8.92087 7.1987 8.59997 7.19849C7.75046 7.18059 6.91155 7.38957 6.1697 7.80389C5.42786 8.2182 4.80993 8.82285 4.3796 9.55553L3.48775 11.1481C2.9879 12.0175 2.77429 13.0222 2.87719 14.0197C2.98009 15.0173 3.39428 15.9572 4.06108 16.7063L5.08034 17.8529C5.34005 18.1474 5.48184 18.5274 5.47849 18.92V19.3659C5.48184 19.7585 5.34005 20.1385 5.08034 20.4329L4.06108 21.5796C3.27987 22.4565 2.84899 23.5904 2.85071 24.7648C2.8584 25.602 3.07753 26.4238 3.48775 27.1537L4.3796 28.7463C4.7992 29.473 5.40282 30.0765 6.12972 30.4958C6.85662 30.9152 7.68115 31.1357 8.52034 31.1352C8.84124 31.1349 9.16132 31.1029 9.4759 31.0396L10.9729 30.737H11.2915C11.5646 30.7412 11.8325 30.8123 12.0718 30.944L12.47 31.1829C12.808 31.3773 13.063 31.689 13.1866 32.0589L13.6963 33.4444C14.0267 34.3789 14.6395 35.1875 15.4499 35.7582C16.2603 36.3289 17.2281 36.6334 18.2192 36.6296H20.0029C20.9941 36.6334 21.9619 36.3289 22.7723 35.7582C23.5827 35.1875 24.1955 34.3789 24.5259 33.4444L25.0196 31.9952C25.1432 31.6253 25.3982 31.3136 25.7363 31.1192L26.1185 30.8803C26.3644 30.7508 26.6369 30.6799 26.9148 30.6733H27.2333L28.7463 30.9759C29.0608 31.0392 29.3809 31.0712 29.7018 31.0715C30.541 31.072 31.3655 30.8515 32.0924 30.4321C32.8193 30.0128 33.423 29.4093 33.8426 28.6826L34.7344 27.09C35.1446 26.3601 35.3638 25.5383 35.3714 24.7011C35.3732 23.5267 34.9423 22.3928 34.1611 21.5159L33.1418 20.4011ZM30.7689 22.5033L31.7881 23.65C32.0478 23.9444 32.1896 24.3244 32.1863 24.717C32.1834 24.9974 32.1064 25.2721 31.9633 25.5133L31.0715 27.1059C30.9325 27.3466 30.733 27.5467 30.4927 27.6864C30.2524 27.8261 29.9797 27.9005 29.7018 27.9022H29.3833L27.8863 27.5996C26.7377 27.3615 25.5416 27.5542 24.5259 28.1411L24.1437 28.364C23.1294 28.9472 22.3644 29.8822 21.9937 30.9918L21.5159 32.457C21.4091 32.7733 21.2055 33.0481 20.934 33.2424C20.6625 33.4367 20.3368 33.5408 20.0029 33.54H18.2192C17.8854 33.5408 17.5596 33.4367 17.2882 33.2424C17.0167 33.0481 16.8131 32.7733 16.7063 32.457L16.2285 30.9918C15.8577 29.8822 15.0927 28.9472 14.0785 28.364L13.6803 28.1411C12.9584 27.7255 12.1404 27.5059 11.3074 27.504C10.9812 27.5042 10.6558 27.5362 10.3359 27.5996L8.83886 27.9022H8.52034C8.23971 27.9033 7.96377 27.8302 7.72046 27.6904C7.47714 27.5506 7.2751 27.3489 7.13479 27.1059L6.25886 25.5133C6.11572 25.2721 6.03881 24.9974 6.0359 24.717C6.01474 24.3326 6.13355 23.9535 6.37034 23.65L7.3896 22.5033C8.17081 21.6264 8.6017 20.4925 8.59997 19.3181V18.8722C8.6017 17.6978 8.17081 16.5639 7.3896 15.687L6.37034 14.5722C6.11064 14.2777 5.96885 13.8978 5.97219 13.5052C5.9997 13.2298 6.09851 12.9663 6.25886 12.7407L7.15071 11.1481C7.28967 10.9074 7.48921 10.7073 7.72949 10.5676C7.96976 10.4279 8.24241 10.3535 8.52034 10.3518H8.83886L10.3359 10.6544C10.6557 10.7185 10.9812 10.7505 11.3074 10.75C12.1404 10.7481 12.9584 10.5285 13.6803 10.1129L14.0785 9.88997C15.0808 9.32239 15.8443 8.41181 16.2285 7.3259L16.7063 5.86071C16.8131 5.54439 17.0167 5.26964 17.2882 5.07531C17.5596 4.88098 17.8854 4.77689 18.2192 4.77775H20.0029C20.3368 4.77689 20.6625 4.88098 20.934 5.07531C21.2055 5.26964 21.4091 5.54439 21.5159 5.86071L21.9937 7.3259C22.3644 8.43551 23.1294 9.37052 24.1437 9.95367L24.5418 10.1766C25.2638 10.5922 26.0818 10.8118 26.9148 10.8137C27.241 10.8142 27.5664 10.7822 27.8863 10.7181L29.3833 10.4155H29.7018C29.9825 10.4144 30.2584 10.4875 30.5017 10.6273C30.745 10.7671 30.9471 10.9688 31.0874 11.2118L31.9633 12.8044C32.1064 13.0456 32.1834 13.3203 32.1863 13.6007C32.1896 13.9933 32.0478 14.3733 31.7881 14.6677L30.7689 15.8144C29.9876 16.6913 29.5568 17.8252 29.5585 18.9996V19.4455C29.5568 20.6199 29.9876 21.7538 30.7689 22.6307" fill="#EF9F05"/>
</svg>
