<svg width="68" height="68" viewBox="0 0 68 68" fill="none" xmlns="http://www.w3.org/2000/svg">
<path d="M34 17C31.7585 17 29.5673 17.6646 27.7035 18.91C25.8398 20.1553 24.3871 21.9253 23.5293 23.9962C22.6715 26.0671 22.4471 28.3459 22.8844 30.5443C23.3217 32.7428 24.4011 34.7622 25.9861 36.3472C27.5711 37.9322 29.5905 39.0116 31.789 39.4489C33.9874 39.8862 36.2662 39.6617 38.3371 38.8039C40.408 37.9461 42.178 36.4935 43.4233 34.6298C44.6686 32.766 45.3333 30.5748 45.3333 28.3333C45.3333 25.3275 44.1393 22.4448 42.0139 20.3194C39.8884 18.194 37.0058 17 34 17ZM34 34C32.8792 34 31.7836 33.6676 30.8517 33.045C29.9199 32.4223 29.1936 31.5373 28.7647 30.5018C28.3358 29.4664 28.2235 28.327 28.4422 27.2278C28.6608 26.1286 29.2005 25.1189 29.993 24.3264C30.7855 23.5339 31.7952 22.9942 32.8945 22.7755C33.9937 22.5569 35.1331 22.6691 36.1685 23.098C37.204 23.5269 38.089 24.2532 38.7116 25.1851C39.3343 26.1169 39.6666 27.2125 39.6666 28.3333C39.6666 29.8362 39.0696 31.2775 38.0069 32.3402C36.9442 33.4029 35.5029 34 34 34ZM34 5.66663C28.3962 5.66663 22.9182 7.32835 18.2588 10.4417C13.5994 13.555 9.96787 17.98 7.82339 23.1573C5.6789 28.3345 5.11781 34.0314 6.21106 39.5275C7.3043 45.0236 10.0028 50.0722 13.9653 54.0346C17.9278 57.9971 22.9763 60.6956 28.4724 61.7889C33.9685 62.8821 39.6654 62.321 44.8427 60.1765C50.0199 58.0321 54.445 54.4005 57.5583 49.7411C60.6716 45.0817 62.3333 39.6038 62.3333 34C62.3333 30.2792 61.6004 26.5948 60.1766 23.1573C58.7527 19.7197 56.6657 16.5963 54.0347 13.9653C51.4037 11.3343 48.2802 9.24726 44.8427 7.82337C41.4051 6.39949 37.7208 5.66663 34 5.66663ZM22.6666 53.6066V51C22.6666 50.2485 22.9652 49.5278 23.4965 48.9965C24.0279 48.4651 24.7485 48.1666 25.5 48.1666H42.5C43.2514 48.1666 43.9721 48.4651 44.5034 48.9965C45.0348 49.5278 45.3333 50.2485 45.3333 51V53.6066C41.8923 55.61 37.9817 56.6655 34 56.6655C30.0182 56.6655 26.1077 55.61 22.6666 53.6066ZM50.8016 49.1583C50.3824 47.2693 49.3312 45.5799 47.8217 44.3692C46.3123 43.1586 44.4349 42.4991 42.5 42.5H25.5C23.565 42.4991 21.6877 43.1586 20.1782 44.3692C18.6688 45.5799 17.6175 47.2693 17.1983 49.1583C14.2533 45.9061 12.3155 41.8691 11.6199 37.5371C10.9244 33.2051 11.5011 28.7644 13.2799 24.7537C15.0588 20.743 17.9634 17.3348 21.6414 14.9426C25.3193 12.5504 29.6125 11.2771 34 11.2771C38.3874 11.2771 42.6806 12.5504 46.3586 14.9426C50.0365 17.3348 52.9411 20.743 54.72 24.7537C56.4989 28.7644 57.0755 33.2051 56.38 37.5371C55.6845 41.8691 53.7466 45.9061 50.8016 49.1583Z" fill="#0C0C34"/>
</svg>
